<?xml version="1.0"?>
<svg width="640" height="480" xmlns="http://www.w3.org/2000/svg" xmlns:svg="http://www.w3.org/2000/svg">
 <!-- Created with SVG-edit - https://github.com/SVG-Edit/svgedit-->
 <g class="layer">
  <title>Layer 1</title>
  <line fill="none" id="svg_3" stroke="#000000" x1="223.6" x2="286.6" y1="66.2" y2="99.2"/>
  <line fill="none" id="svg_5" stroke="#000000" x1="290.6" x2="357.6" y1="98.2" y2="67.2"/>
  <line fill="none" id="svg_9" stroke="#000000" x1="223.6" x2="198.6" y1="66.2" y2="67.2"/>
  <line fill="none" id="svg_15" stroke="#000000" x1="198.6" x2="282.6" y1="68.2" y2="124.2"/>
  <line fill="none" id="svg_16" stroke="#000000" x1="283.6" x2="283.6" y1="98.2" y2="125.2"/>
  <line fill="none" id="svg_17" stroke="#000000" x1="290.6" x2="290.6" y1="99.2" y2="126.2"/>
  <line fill="none" id="svg_19" stroke="#000000" x1="358.6" x2="386.6" y1="67.2" y2="67.2"/>
  <line fill="none" id="svg_22" stroke="#000000" x1="385.6" x2="290.6" y1="67.2" y2="127.2"/>
  <line fill="none" id="svg_23" stroke="#000000" x1="194.6" x2="281.6" y1="73.2" y2="136.2"/>
  <line fill="none" id="svg_25" stroke="#000000" x1="193.6" x2="195.6" y1="74.2" y2="93.2"/>
  <line fill="none" id="svg_27" stroke="#000000" x1="194.6" x2="246.6" y1="94.2" y2="152.2"/>
  <line fill="none" id="svg_32" stroke="#000000" x1="244.6" x2="283.6" y1="152.2" y2="136.2"/>
  <line fill="none" id="svg_33" stroke="#000000" x1="282.6" x2="252.6" y1="141.2" y2="166.2"/>
  <line fill="none" id="svg_35" stroke="#000000" x1="251.6" x2="266.6" y1="166.2" y2="261.2"/>
  <line fill="none" id="svg_37" stroke="#000000" x1="266.6" x2="280.6" y1="261.2" y2="285.2"/>
  <line fill="none" id="svg_38" stroke="#000000" x1="280.6" x2="283.6" y1="143.2" y2="285.2"/>
  <line fill="none" id="svg_39" stroke="#000000" x1="293.6" x2="394.6" y1="138.2" y2="72.2"/>
  <line fill="none" id="svg_40" stroke="#000000" x1="394.6" x2="390.6" y1="73.2" y2="92.2"/>
  <line fill="none" id="svg_41" stroke="#000000" x1="389.6" x2="326.6" y1="91.2" y2="147.2"/>
  <line fill="none" id="svg_42" stroke="#000000" x1="294.6" x2="325.6" y1="136.2" y2="145.2"/>
  <line fill="none" id="svg_43" stroke="#000000" x1="290.6" x2="291.6" y1="142.2" y2="282.2"/>
  <line fill="none" id="svg_45" stroke="#000000" x1="288.6" x2="319.6" y1="142.2" y2="160.2"/>
  <line fill="none" id="svg_46" stroke="#000000" x1="318.6" x2="310.6" y1="158.2" y2="256.2"/>
  <line fill="none" id="svg_47" stroke="#000000" x1="310.6" x2="291.6" y1="256.2" y2="283.2"/>
 </g>
</svg>